<?xml version="1.0" encoding="UTF-8"?>
<svg xmlns="http://www.w3.org/2000/svg" xmlns:xlink="http://www.w3.org/1999/xlink" width="80px" height="80px" viewBox="0 0 80 80" version="1.1">
<g id="surface1">
<path style=" stroke:none;fill-rule:nonzero;fill:rgb(90.980392%,44.705882%,21.176471%);fill-opacity:1;" d="M 78.148438 40.015625 C 78.148438 61.078125 61.078125 78.148438 40.015625 78.148438 C 18.953125 78.148438 1.882812 61.078125 1.882812 40.015625 C 1.882812 18.953125 18.953125 1.882812 40.015625 1.882812 C 61.078125 1.882812 78.148438 18.953125 78.148438 40.015625 Z M 78.148438 40.015625 "/>
<path style=" stroke:none;fill-rule:evenodd;fill:rgb(100%,100%,100%);fill-opacity:1;" d="M 26.046875 54.523438 C 26.03125 54.523438 26.023438 54.507812 26.027344 54.496094 L 38.660156 22.246094 C 38.664062 22.238281 38.671875 22.234375 38.679688 22.234375 L 54.675781 22.234375 C 54.683594 22.234375 54.691406 22.238281 54.695312 22.246094 L 67.140625 54.496094 C 67.144531 54.507812 67.136719 54.523438 67.121094 54.523438 Z M 11.089844 54.660156 C 11.074219 54.660156 11.066406 54.648438 11.070312 54.636719 L 20.792969 29.519531 C 20.796875 29.511719 20.800781 29.503906 20.808594 29.503906 L 28.984375 29.503906 C 29 29.503906 29.007812 29.519531 29.003906 29.53125 L 19.59375 54.648438 C 19.589844 54.65625 19.582031 54.660156 19.574219 54.660156 Z M 11.089844 54.660156 "/>
</g>
</svg>
